{"asset":{"generator":"3D Builder","version":"2.0"},"scene":0,"scenes":[{"nodes":[0]}],"nodes":[{"mesh":0,"matrix":[0.39370077848434448,0,0,0,0,-4.693279009870821E-8,-0.39370071887969971,0,0,0.39370071887969971,-4.693279009870821E-8,0,-0.66584676504135132,-0.0073928758502006531,1.1013170480728149,1]}],"meshes":[{"primitives":[{"attributes":{"POSITION":0,"COLOR_0":3},"mode":4,"indices":4},{"attributes":{"POSITION":1,"TEXCOORD_0":2},"mode":4,"indices":5,"material":0}]}],"materials":[{"pbrMetallicRoughness":{"baseColorFactor":[1,1,1,1],"metallicFactor":0,"roughnessFactor":1,"baseColorTexture":{"index":0,"texCoord":0}},"alphaMode":"OPAQUE"}],"textures":[{"source":0,"sampler":0}],"images":[{"uri":"12.jpg"}],"samplers":[{"magFilter":9729,"wrapS":10497,"wrapT":10497}],"accessors":[{"bufferView":0,"byteOffset":0,"count":2544,"componentType":5126,"type":"VEC3","min":[3.8757323750360229E-7,-3.8757323750360229E-7,0.018778219819068909],"max":[3.5806386470794678,6.0709052085876465,0.018778219819068909]},{"bufferView":0,"byteOffset":30528,"count":5190,"componentType":5126,"type":"VEC3","min":[3.8757323750360229E-7,-3.8757323750360229E-7,0.018778219819068909],"max":[3.5806386470794678,6.0709052085876465,0.031986217945814133]},{"bufferView":1,"byteOffset":0,"count":5190,"componentType":5126,"type":"VEC2"},{"bufferView":2,"byteOffset":0,"count":2544,"componentType":5121,"type":"VEC4","normalized":true},{"bufferView":3,"byteOffset":0,"count":11748,"componentType":5125,"type":"SCALAR"},{"bufferView":3,"byteOffset":46992,"count":14328,"componentType":5125,"type":"SCALAR"}],"bufferViews":[{"buffer":0,"byteOffset":0,"byteLength":92808,"byteStride":12,"target":34962},{"buffer":0,"byteOffset":92808,"byteLength":41520,"byteStride":8,"target":34962},{"buffer":0,"byteOffset":134328,"byteLength":10176,"byteStride":4,"target":34962},{"buffer":0,"byteOffset":144504,"byteLength":104304,"target":34963}],"buffers":[{"byteLength":248808,"uri":"carpet.bin"}]}