{"asset":{"generator":"3D Builder","version":"2.0"},"scene":0,"scenes":[{"nodes":[0]}],"nodes":[{"mesh":0,"matrix":[0.99999994039535522,0,0,0,0,-1.1920928244535389E-7,-0.99999982118606567,0,0,0.99999982118606567,-1.1920928244535389E-7,0,0,-0.022666096687316895,2.7020095050289683E-9,1]}],"meshes":[{"primitives":[{"attributes":{"POSITION":0,"TEXCOORD_0":2},"mode":4,"indices":4,"material":0},{"attributes":{"POSITION":1,"COLOR_0":3},"mode":4,"indices":5}]}],"materials":[{"pbrMetallicRoughness":{"baseColorFactor":[1,1,1,1],"metallicFactor":0,"roughnessFactor":1,"baseColorTexture":{"index":0,"texCoord":0}},"alphaMode":"OPAQUE"}],"textures":[{"source":0,"sampler":0}],"images":[{"uri":"12.jpg"}],"samplers":[{"magFilter":9729,"wrapS":10497,"wrapT":10497}],"accessors":[{"bufferView":0,"byteOffset":0,"count":2261,"componentType":5126,"type":"VEC3","min":[0,0,0.023405401036143303],"max":[0.14097000658512115,0.23901401460170746,0.023926800116896629]},{"bufferView":0,"byteOffset":27132,"count":1508,"componentType":5126,"type":"VEC3","min":[0,0,0.023405401036143303],"max":[0.14097000658512115,0.23901401460170746,0.023405600339174271]},{"bufferView":1,"byteOffset":0,"count":2261,"componentType":5126,"type":"VEC2"},{"bufferView":2,"byteOffset":0,"count":1508,"componentType":5121,"type":"VEC4","normalized":true},{"bufferView":3,"byteOffset":0,"count":10536,"componentType":5125,"type":"SCALAR"},{"bufferView":3,"byteOffset":42144,"count":5424,"componentType":5125,"type":"SCALAR"}],"bufferViews":[{"buffer":0,"byteOffset":0,"byteLength":45228,"byteStride":12,"target":34962},{"buffer":0,"byteOffset":45228,"byteLength":18088,"byteStride":8,"target":34962},{"buffer":0,"byteOffset":63316,"byteLength":6032,"byteStride":4,"target":34962},{"buffer":0,"byteOffset":69348,"byteLength":63840,"target":34963}],"buffers":[{"byteLength":133188,"uri":"carpet_gltf.bin"}]}