{"asset":{"generator":"3D Builder","version":"2.0"},"scene":0,"scenes":[{"nodes":[0]}],"nodes":[{"mesh":0,"matrix":[1,0,0,0,0,-1.1920928955078125E-7,-0.99999988079071045,0,0,0.99999988079071045,-1.1920928955078125E-7,0,0.13285119831562042,-0.048660062253475189,-0.13775545358657837,1]}],"meshes":[{"primitives":[{"attributes":{"POSITION":0,"COLOR_0":5},"mode":4,"indices":6},{"attributes":{"POSITION":1,"TEXCOORD_0":3},"mode":4,"indices":7,"material":0},{"attributes":{"POSITION":2,"TEXCOORD_0":4},"mode":4,"indices":8,"material":0}]}],"materials":[{"pbrMetallicRoughness":{"baseColorFactor":[1,1,1,1],"metallicFactor":0,"roughnessFactor":1,"baseColorTexture":{"index":0,"texCoord":0}},"alphaMode":"OPAQUE"}],"textures":[{"source":0,"sampler":0}],"images":[{"uri":"12.png"}],"samplers":[{"magFilter":9729,"wrapS":10497,"wrapT":10497}],"accessors":[{"bufferView":0,"byteOffset":0,"count":748,"componentType":5126,"type":"VEC3","min":[-0.54389470815658569,-0.9524649977684021,0.048660054802894592],"max":[0.85701698064804077,1.4375226497650146,0.048660054802894592]},{"bufferView":0,"byteOffset":8976,"count":989,"componentType":5126,"type":"VEC3","min":[-0.54389470815658569,-0.9524649977684021,0.048660054802894592],"max":[0.85701698064804077,1.4375226497650146,0.053689256310462952]},{"bufferView":0,"byteOffset":20844,"count":1416,"componentType":5126,"type":"VEC3","min":[-0.54389470815658569,-0.9524649977684021,0.053689256310462952],"max":[0.85701698064804077,1.4375226497650146,0.053689256310462952]},{"bufferView":1,"byteOffset":0,"count":989,"componentType":5126,"type":"VEC2"},{"bufferView":1,"byteOffset":7912,"count":1416,"componentType":5126,"type":"VEC2"},{"bufferView":2,"byteOffset":0,"count":748,"componentType":5121,"type":"VEC4","normalized":true},{"bufferView":3,"byteOffset":0,"count":3180,"componentType":5125,"type":"SCALAR"},{"bufferView":3,"byteOffset":12720,"count":2892,"componentType":5125,"type":"SCALAR"},{"bufferView":3,"byteOffset":24288,"count":2160,"componentType":5125,"type":"SCALAR"}],"bufferViews":[{"buffer":0,"byteOffset":0,"byteLength":37836,"byteStride":12,"target":34962},{"buffer":0,"byteOffset":37836,"byteLength":19240,"byteStride":8,"target":34962},{"buffer":0,"byteOffset":57076,"byteLength":2992,"byteStride":4,"target":34962},{"buffer":0,"byteOffset":60068,"byteLength":32928,"target":34963}],"buffers":[{"byteLength":92996,"uri":"12.bin"}]}