{"asset":{"generator":"3D Builder","version":"2.0"},"scene":0,"scenes":[{"nodes":[0]}],"nodes":[{"mesh":0,"matrix":[9.9380722045898437,0,0,0,0,-1.1920301403733902E-6,-9.9994726181030273,0,0,0.99999988079071045,-1.1920928955078125E-7,0,-0.62999993562698364,1.2820959227610729E-7,1.0754998922348022,1]}],"meshes":[{"primitives":[{"attributes":{"POSITION":0},"mode":4,"indices":3,"material":0},{"attributes":{"POSITION":1,"TEXCOORD_0":2},"mode":4,"indices":4,"material":1}]}],"materials":[{"name":"FFFFFFFF","pbrMetallicRoughness":{"baseColorFactor":[1,1,1,1],"metallicFactor":0,"roughnessFactor":1},"alphaMode":"OPAQUE"},{"pbrMetallicRoughness":{"baseColorFactor":[1,1,1,1],"metallicFactor":0,"roughnessFactor":1,"baseColorTexture":{"index":0,"texCoord":0}},"alphaMode":"OPAQUE"}],"textures":[{"source":0,"sampler":0}],"images":[{"uri":"12.jpg"}],"samplers":[{"magFilter":9729,"wrapS":10497,"wrapT":10497}],"accessors":[{"bufferView":0,"byteOffset":0,"count":3599,"componentType":5126,"type":"VEC3","min":[0,0,0],"max":[0.14096999168395996,0.23901399970054626,0.033893760293722153]},{"bufferView":0,"byteOffset":43188,"count":236786,"componentType":5126,"type":"VEC3","min":[0,0,0.011297919787466526],"max":[0.14096999168395996,0.23901399970054626,0.033893760293722153]},{"bufferView":1,"byteOffset":0,"count":236786,"componentType":5126,"type":"VEC2"},{"bufferView":2,"byteOffset":0,"count":14052,"componentType":5125,"type":"SCALAR"},{"bufferView":2,"byteOffset":56208,"count":1413174,"componentType":5125,"type":"SCALAR"}],"bufferViews":[{"buffer":0,"byteOffset":0,"byteLength":2884620,"byteStride":12,"target":34962},{"buffer":0,"byteOffset":2884620,"byteLength":1894288,"byteStride":8,"target":34962},{"buffer":0,"byteOffset":4778908,"byteLength":5708904,"target":34963}],"buffers":[{"byteLength":10487812,"uri":"12.bin"}]}