{"asset":{"generator":"3D Builder","version":"2.0"},"scene":0,"scenes":[{"nodes":[0]}],"nodes":[{"mesh":0,"matrix":[9.9380712509155273,0,0,0,0,-1.1920299129997147E-6,-9.9994707107543945,0,0,0.99999988079071045,-1.1920928955078125E-7,0,-0.57405096292495728,1.1802061550270082E-7,0.99002856016159058,1]}],"meshes":[{"primitives":[{"attributes":{"POSITION":0,"TEXCOORD_0":2},"mode":4,"indices":4,"material":0},{"attributes":{"POSITION":1,"COLOR_0":3},"mode":4,"indices":5}]}],"materials":[{"pbrMetallicRoughness":{"baseColorFactor":[1,1,1,1],"metallicFactor":0,"roughnessFactor":1,"baseColorTexture":{"index":0,"texCoord":0}},"alphaMode":"OPAQUE"}],"textures":[{"source":0,"sampler":0}],"images":[{"uri":"12.png"}],"samplers":[{"magFilter":9729,"wrapS":10497,"wrapT":10497}],"accessors":[{"bufferView":0,"byteOffset":0,"count":890,"componentType":5126,"type":"VEC3","min":[0,0,0.018872581422328949],"max":[0.14097000658512115,0.23901401460170746,0.023926800116896629]},{"bufferView":0,"byteOffset":10680,"count":592,"componentType":5126,"type":"VEC3","min":[0,0,0.018872581422328949],"max":[0.14097000658512115,0.23901401460170746,0.018872585147619247]},{"bufferView":1,"byteOffset":0,"count":890,"componentType":5126,"type":"VEC2"},{"bufferView":2,"byteOffset":0,"count":592,"componentType":5121,"type":"VEC4","normalized":true},{"bufferView":3,"byteOffset":0,"count":4128,"componentType":5125,"type":"SCALAR"},{"bufferView":3,"byteOffset":16512,"count":2112,"componentType":5125,"type":"SCALAR"}],"bufferViews":[{"buffer":0,"byteOffset":0,"byteLength":17784,"byteStride":12,"target":34962},{"buffer":0,"byteOffset":17784,"byteLength":7120,"byteStride":8,"target":34962},{"buffer":0,"byteOffset":24904,"byteLength":2368,"byteStride":4,"target":34962},{"buffer":0,"byteOffset":27272,"byteLength":24960,"target":34963}],"buffers":[{"byteLength":52232,"uri":"12.bin"}]}