{"asset":{"generator":"3D Builder","version":"2.0"},"scene":0,"scenes":[{"nodes":[0,1]}],"nodes":[{"mesh":0,"matrix":[1,0,0,0,0,-1.1920928955078125E-7,-0.99999988079071045,0,0,0.99999988079071045,-1.1920928955078125E-7,0,0.10243550688028336,-0.048660069704055786,-0.17190790176391602,1]},{"mesh":1,"matrix":[7.6969051361083984,0,0,0,0,-9.1754259301524144E-7,-7.696904182434082,0,0,7.696904182434082,-4.0142447232938139E-7,0,0.70123976469039917,0.037812992930412292,-0.83925718069076538,1]}],"meshes":[{"primitives":[{"attributes":{"POSITION":0,"COLOR_0":3},"mode":4,"indices":4},{"attributes":{"POSITION":1,"TEXCOORD_0":2},"mode":4,"indices":5,"material":0}]},{"primitives":[{"attributes":{"POSITION":6},"mode":4,"indices":7,"material":1}]}],"materials":[{"pbrMetallicRoughness":{"baseColorFactor":[1,1,1,1],"metallicFactor":0,"roughnessFactor":1,"baseColorTexture":{"index":0,"texCoord":0}},"alphaMode":"OPAQUE"},{"name":"Orange","pbrMetallicRoughness":{"baseColorFactor":[1,0.21223078668117523,0.018500218167901039,1],"metallicFactor":0,"roughnessFactor":1},"alphaMode":"OPAQUE"}],"textures":[{"source":0,"sampler":0}],"images":[{"uri":"12.png"}],"samplers":[{"magFilter":9729,"wrapS":10497,"wrapT":10497}],"accessors":[{"bufferView":0,"byteOffset":0,"count":748,"componentType":5126,"type":"VEC3","min":[-0.54389470815658569,-0.9524649977684021,0.048660054802894592],"max":[0.85701698064804077,1.4375226497650146,0.048660054802894592]},{"bufferView":0,"byteOffset":8976,"count":2145,"componentType":5126,"type":"VEC3","min":[-0.54389470815658569,-0.9524649977684021,0.048660054802894592],"max":[0.85701698064804077,1.4375226497650146,0.053689256310462952]},{"bufferView":1,"byteOffset":0,"count":2145,"componentType":5126,"type":"VEC2"},{"bufferView":2,"byteOffset":0,"count":748,"componentType":5121,"type":"VEC4","normalized":true},{"bufferView":3,"byteOffset":0,"count":3180,"componentType":5125,"type":"SCALAR"},{"bufferView":3,"byteOffset":12720,"count":5052,"componentType":5125,"type":"SCALAR"},{"bufferView":4,"byteOffset":0,"count":97,"componentType":5126,"type":"VEC3","min":[-0.10961300134658813,-0.118647001683712,-9.90071029605133E-8],"max":[-0.058812599629163742,-0.067847400903701782,0.0507998988032341]},{"bufferView":5,"byteOffset":0,"count":570,"componentType":5125,"type":"SCALAR"}],"bufferViews":[{"buffer":0,"byteOffset":0,"byteLength":34716,"byteStride":12,"target":34962},{"buffer":0,"byteOffset":34716,"byteLength":17160,"byteStride":8,"target":34962},{"buffer":0,"byteOffset":51876,"byteLength":2992,"byteStride":4,"target":34962},{"buffer":0,"byteOffset":54868,"byteLength":32928,"target":34963},{"buffer":0,"byteOffset":87796,"byteLength":1164,"byteStride":12,"target":34962},{"buffer":0,"byteOffset":88960,"byteLength":2280,"target":34963}],"buffers":[{"byteLength":91240,"uri":"12.bin"}]}