{"asset":{"generator":"3D Builder","version":"2.0"},"scene":0,"scenes":[{"nodes":[0]}],"nodes":[{"children":[1,2,3,4,5,6,7,8]},{"mesh":0,"matrix":[1,0,0,0,0,-1.198933290424975E-7,-1.0057380199432373,0,0,0.99999988079071045,-1.1920928955078125E-7,0,0,-0.015164891257882118,0.00068575411569327116,1]},{"mesh":1,"matrix":[1,0,0,0,0,-1.198933290424975E-7,-1.0057380199432373,0,0,0.99999988079071045,-1.1920928955078125E-7,0,0,-0.015164891257882118,0.00068575411569327116,1]},{"mesh":2,"matrix":[1,0,0,0,0,-1.198933290424975E-7,-1.0057380199432373,0,0,0.99999988079071045,-1.1920928955078125E-7,0,0,-0.015164891257882118,0.00068575411569327116,1]},{"mesh":3,"matrix":[1,0,0,0,0,-1.198933290424975E-7,-1.0057380199432373,0,0,0.99999988079071045,-1.1920928955078125E-7,0,0,-0.015164891257882118,0.00068575411569327116,1]},{"mesh":4,"matrix":[1,0,0,0,0,-1.198933290424975E-7,-1.0057380199432373,0,0,0.99999988079071045,-1.1920928955078125E-7,0,0,-0.015164891257882118,0.00068575411569327116,1]},{"mesh":5,"matrix":[1,0,0,0,0,-1.198933290424975E-7,-1.0057380199432373,0,0,0.99999988079071045,-1.1920928955078125E-7,0,0,-0.015164891257882118,0.00068575411569327116,1]},{"mesh":6,"matrix":[1,0,0,0,0,-1.198933290424975E-7,-1.0057380199432373,0,0,0.99999988079071045,-1.1920928955078125E-7,0,0,-0.015164891257882118,0.00068575411569327116,1]},{"mesh":7,"matrix":[1,0,0,0,0,-1.198933290424975E-7,-1.0057380199432373,0,0,0.99999988079071045,-1.1920928955078125E-7,0,0,-0.015164891257882118,0.00068575411569327116,1]}],"meshes":[{"primitives":[{"attributes":{"POSITION":0,"TEXCOORD_0":2},"mode":4,"indices":4,"material":0},{"attributes":{"POSITION":1,"COLOR_0":3},"mode":4,"indices":5}]},{"primitives":[{"attributes":{"POSITION":6,"TEXCOORD_0":8},"mode":4,"indices":10,"material":0},{"attributes":{"POSITION":7,"COLOR_0":9},"mode":4,"indices":11}]},{"primitives":[{"attributes":{"POSITION":12,"TEXCOORD_0":14},"mode":4,"indices":16,"material":0},{"attributes":{"POSITION":13,"COLOR_0":15},"mode":4,"indices":17}]},{"primitives":[{"attributes":{"POSITION":18,"TEXCOORD_0":20},"mode":4,"indices":22,"material":0},{"attributes":{"POSITION":19,"COLOR_0":21},"mode":4,"indices":23}]},{"primitives":[{"attributes":{"POSITION":24,"TEXCOORD_0":26},"mode":4,"indices":28,"material":0},{"attributes":{"POSITION":25,"COLOR_0":27},"mode":4,"indices":29}]},{"primitives":[{"attributes":{"POSITION":30,"TEXCOORD_0":32},"mode":4,"indices":34,"material":0},{"attributes":{"POSITION":31,"COLOR_0":33},"mode":4,"indices":35}]},{"primitives":[{"attributes":{"POSITION":36,"TEXCOORD_0":38},"mode":4,"indices":40,"material":0},{"attributes":{"POSITION":37,"COLOR_0":39},"mode":4,"indices":41}]},{"primitives":[{"attributes":{"POSITION":42,"TEXCOORD_0":44},"mode":4,"indices":46,"material":0},{"attributes":{"POSITION":43,"COLOR_0":45},"mode":4,"indices":47}]}],"materials":[{"pbrMetallicRoughness":{"baseColorFactor":[1,1,1,1],"metallicFactor":0,"roughnessFactor":1,"baseColorTexture":{"index":0,"texCoord":0}},"alphaMode":"OPAQUE"}],"textures":[{"source":0,"sampler":0}],"images":[{"uri":"12.jpg"}],"samplers":[{"magFilter":9729,"wrapS":10497,"wrapT":10497}],"accessors":[{"bufferView":0,"byteOffset":0,"count":46116,"componentType":5126,"type":"VEC3","min":[0,0,0.021305892616510391],"max":[0.14097000658512115,0.23901401460170746,0.023926800116896629]},{"bufferView":0,"byteOffset":553392,"count":30920,"componentType":5126,"type":"VEC3","min":[0,0,0.021305892616510391],"max":[0.14097000658512115,0.23901401460170746,0.021305892616510391]},{"bufferView":1,"byteOffset":0,"count":46116,"componentType":5126,"type":"VEC2"},{"bufferView":2,"byteOffset":0,"count":30920,"componentType":5121,"type":"VEC4","normalized":true},{"bufferView":3,"byteOffset":0,"count":215208,"componentType":5125,"type":"SCALAR"},{"bufferView":3,"byteOffset":860832,"count":110115,"componentType":5125,"type":"SCALAR"},{"bufferView":4,"byteOffset":0,"count":9,"componentType":5126,"type":"VEC3","min":[0.049377597868442535,0.19659601151943207,0.021305892616510391],"max":[0.049784004688262939,0.1968500167131424,0.023926800116896629]},{"bufferView":4,"byteOffset":108,"count":6,"componentType":5126,"type":"VEC3","min":[0.049377597868442535,0.19659601151943207,0.021305892616510391],"max":[0.049784004688262939,0.1968500167131424,0.021305892616510391]},{"bufferView":5,"byteOffset":0,"count":9,"componentType":5126,"type":"VEC2"},{"bufferView":6,"byteOffset":0,"count":6,"componentType":5121,"type":"VEC4","normalized":true},{"bufferView":7,"byteOffset":0,"count":30,"componentType":5125,"type":"SCALAR"},{"bufferView":7,"byteOffset":120,"count":12,"componentType":5125,"type":"SCALAR"},{"bufferView":8,"byteOffset":0,"count":9,"componentType":5126,"type":"VEC3","min":[0.060147199779748917,0.16865600645542145,0.021305892616510391],"max":[0.06045200303196907,0.16891002655029297,0.023926800116896629]},{"bufferView":8,"byteOffset":108,"count":6,"componentType":5126,"type":"VEC3","min":[0.060147199779748917,0.16865600645542145,0.021305892616510391],"max":[0.06045200303196907,0.16891002655029297,0.021305892616510391]},{"bufferView":9,"byteOffset":0,"count":9,"componentType":5126,"type":"VEC2"},{"bufferView":10,"byteOffset":0,"count":6,"componentType":5121,"type":"VEC4","normalized":true},{"bufferView":11,"byteOffset":0,"count":30,"componentType":5125,"type":"SCALAR"},{"bufferView":11,"byteOffset":120,"count":12,"componentType":5125,"type":"SCALAR"},{"bufferView":12,"byteOffset":0,"count":9,"componentType":5126,"type":"VEC3","min":[0.0901700034737587,0.18161001801490784,0.021305892616510391],"max":[0.090424001216888428,0.18186402320861816,0.023926800116896629]},{"bufferView":12,"byteOffset":108,"count":6,"componentType":5126,"type":"VEC3","min":[0.0901700034737587,0.18161001801490784,0.021305892616510391],"max":[0.090424001216888428,0.18186402320861816,0.021305892616510391]},{"bufferView":13,"byteOffset":0,"count":9,"componentType":5126,"type":"VEC2"},{"bufferView":14,"byteOffset":0,"count":6,"componentType":5121,"type":"VEC4","normalized":true},{"bufferView":15,"byteOffset":0,"count":30,"componentType":5125,"type":"SCALAR"},{"bufferView":15,"byteOffset":120,"count":12,"componentType":5125,"type":"SCALAR"},{"bufferView":16,"byteOffset":0,"count":9,"componentType":5126,"type":"VEC3","min":[0.0980440005660057,0.15494002401828766,0.021305892616510391],"max":[0.098128676414489746,0.15502466261386871,0.023926800116896629]},{"bufferView":16,"byteOffset":108,"count":6,"componentType":5126,"type":"VEC3","min":[0.0980440005660057,0.15494002401828766,0.021305892616510391],"max":[0.098128676414489746,0.15502466261386871,0.021305892616510391]},{"bufferView":17,"byteOffset":0,"count":9,"componentType":5126,"type":"VEC2"},{"bufferView":18,"byteOffset":0,"count":6,"componentType":5121,"type":"VEC4","normalized":true},{"bufferView":19,"byteOffset":0,"count":30,"componentType":5125,"type":"SCALAR"},{"bufferView":19,"byteOffset":120,"count":12,"componentType":5125,"type":"SCALAR"},{"bufferView":20,"byteOffset":0,"count":9,"componentType":5126,"type":"VEC3","min":[0.066293999552726746,0.11887200921773911,0.021305892616510391],"max":[0.066548004746437073,0.11963400989770889,0.023926800116896629]},{"bufferView":20,"byteOffset":108,"count":6,"componentType":5126,"type":"VEC3","min":[0.066293999552726746,0.11887200921773911,0.021305892616510391],"max":[0.066548004746437073,0.11963400989770889,0.021305892616510391]},{"bufferView":21,"byteOffset":0,"count":9,"componentType":5126,"type":"VEC2"},{"bufferView":22,"byteOffset":0,"count":6,"componentType":5121,"type":"VEC4","normalized":true},{"bufferView":23,"byteOffset":0,"count":30,"componentType":5125,"type":"SCALAR"},{"bufferView":23,"byteOffset":120,"count":12,"componentType":5125,"type":"SCALAR"},{"bufferView":24,"byteOffset":0,"count":9,"componentType":5126,"type":"VEC3","min":[0.0980440005660057,0.10261601209640503,0.021305892616510391],"max":[0.098298005759716034,0.10287001729011536,0.023926800116896629]},{"bufferView":24,"byteOffset":108,"count":6,"componentType":5126,"type":"VEC3","min":[0.0980440005660057,0.10261601209640503,0.021305892616510391],"max":[0.098298005759716034,0.10287001729011536,0.021305892616510391]},{"bufferView":25,"byteOffset":0,"count":9,"componentType":5126,"type":"VEC2"},{"bufferView":26,"byteOffset":0,"count":6,"componentType":5121,"type":"VEC4","normalized":true},{"bufferView":27,"byteOffset":0,"count":30,"componentType":5125,"type":"SCALAR"},{"bufferView":27,"byteOffset":120,"count":12,"componentType":5125,"type":"SCALAR"},{"bufferView":28,"byteOffset":0,"count":9,"componentType":5126,"type":"VEC3","min":[0.096012003719806671,0.13944600522518158,0.021305892616510391],"max":[0.0962660014629364,0.13975082337856293,0.023926800116896629]},{"bufferView":28,"byteOffset":108,"count":6,"componentType":5126,"type":"VEC3","min":[0.096012003719806671,0.13944600522518158,0.021305892616510391],"max":[0.0962660014629364,0.13975082337856293,0.021305892616510391]},{"bufferView":29,"byteOffset":0,"count":9,"componentType":5126,"type":"VEC2"},{"bufferView":30,"byteOffset":0,"count":6,"componentType":5121,"type":"VEC4","normalized":true},{"bufferView":31,"byteOffset":0,"count":30,"componentType":5125,"type":"SCALAR"},{"bufferView":31,"byteOffset":120,"count":12,"componentType":5125,"type":"SCALAR"}],"bufferViews":[{"buffer":0,"byteOffset":0,"byteLength":924432,"byteStride":12,"target":34962},{"buffer":0,"byteOffset":924432,"byteLength":368928,"byteStride":8,"target":34962},{"buffer":0,"byteOffset":1293360,"byteLength":123680,"byteStride":4,"target":34962},{"buffer":0,"byteOffset":1417040,"byteLength":1301292,"target":34963},{"buffer":0,"byteOffset":2718332,"byteLength":180,"byteStride":12,"target":34962},{"buffer":0,"byteOffset":2718512,"byteLength":72,"byteStride":8,"target":34962},{"buffer":0,"byteOffset":2718584,"byteLength":24,"byteStride":4,"target":34962},{"buffer":0,"byteOffset":2718608,"byteLength":168,"target":34963},{"buffer":0,"byteOffset":2718776,"byteLength":180,"byteStride":12,"target":34962},{"buffer":0,"byteOffset":2718956,"byteLength":72,"byteStride":8,"target":34962},{"buffer":0,"byteOffset":2719028,"byteLength":24,"byteStride":4,"target":34962},{"buffer":0,"byteOffset":2719052,"byteLength":168,"target":34963},{"buffer":0,"byteOffset":2719220,"byteLength":180,"byteStride":12,"target":34962},{"buffer":0,"byteOffset":2719400,"byteLength":72,"byteStride":8,"target":34962},{"buffer":0,"byteOffset":2719472,"byteLength":24,"byteStride":4,"target":34962},{"buffer":0,"byteOffset":2719496,"byteLength":168,"target":34963},{"buffer":0,"byteOffset":2719664,"byteLength":180,"byteStride":12,"target":34962},{"buffer":0,"byteOffset":2719844,"byteLength":72,"byteStride":8,"target":34962},{"buffer":0,"byteOffset":2719916,"byteLength":24,"byteStride":4,"target":34962},{"buffer":0,"byteOffset":2719940,"byteLength":168,"target":34963},{"buffer":0,"byteOffset":2720108,"byteLength":180,"byteStride":12,"target":34962},{"buffer":0,"byteOffset":2720288,"byteLength":72,"byteStride":8,"target":34962},{"buffer":0,"byteOffset":2720360,"byteLength":24,"byteStride":4,"target":34962},{"buffer":0,"byteOffset":2720384,"byteLength":168,"target":34963},{"buffer":0,"byteOffset":2720552,"byteLength":180,"byteStride":12,"target":34962},{"buffer":0,"byteOffset":2720732,"byteLength":72,"byteStride":8,"target":34962},{"buffer":0,"byteOffset":2720804,"byteLength":24,"byteStride":4,"target":34962},{"buffer":0,"byteOffset":2720828,"byteLength":168,"target":34963},{"buffer":0,"byteOffset":2720996,"byteLength":180,"byteStride":12,"target":34962},{"buffer":0,"byteOffset":2721176,"byteLength":72,"byteStride":8,"target":34962},{"buffer":0,"byteOffset":2721248,"byteLength":24,"byteStride":4,"target":34962},{"buffer":0,"byteOffset":2721272,"byteLength":168,"target":34963}],"buffers":[{"byteLength":2721440,"uri":"12.bin"}]}